<?xml version="1.0"?>
<svg width="512" height="512" xmlns="http://www.w3.org/2000/svg" xmlns:svg="http://www.w3.org/2000/svg" enable-background="new 0 0 512 512" version="1.1" xml:space="preserve">
 <g class="layer">
  <title>Layer 1</title>
  <path d="m424.99,424.83c-27.02,0.05 -54.04,0.1 -81.48,-0.25c0.49,-1.57 1.29,-2.85 2.33,-3.89c53.89,-53.93 107.8,-107.84 161.75,-161.72c1.23,-1.23 2.93,-1.99 4.41,-2.97c0,27.02 0,54.04 -0.34,81.57c-1.41,1.27 -2.6,1.91 -3.51,2.82c-26.95,26.9 -53.88,53.83 -80.78,80.79c-1,1.01 -1.59,2.43 -2.38,3.65z" fill="#B2B2B2" id="svg_3"/>
  <path d="m512,255.53c-1.48,1.45 -3.18,2.21 -4.41,3.44c-53.95,53.88 -107.86,107.79 -161.75,161.72c-1.04,1.04 -1.84,2.32 -2.8,3.81c-21.74,0.38 -43.43,0.43 -65.53,0.08c6.92,-8 14.31,-15.53 21.53,-23.23c1.35,-1.44 1.99,-3.56 3.26,-5.54c10.93,-5.14 21.55,-10.11 32.16,-15.08c3.4,-1.59 6.79,-3.2 10.26,-4.38c0.86,3.4 0.93,6.85 2.56,9.25c4.82,7.08 12.91,7.14 19.85,0.38c8.55,-8.34 16.95,-16.84 25.36,-25.32c7.33,-7.39 7.66,-12.84 1.53,-21.61c1.56,-1.93 2.96,-3.6 4.53,-5.07c16.84,-15.77 31.13,-33.61 43.19,-53.24c12.51,-20.35 22.67,-41.79 29.44,-64.74c3.43,-11.62 6.49,-23.35 10.07,-35.05c1.76,-1.12 3.31,-2.07 4.57,-3.31c7.3,-7.21 14.49,-14.51 21.8,-21.69c1.24,-1.21 2.91,-1.98 4.38,-2.95c0,34.02 0,68.04 0,102.53z" fill="#B7B7B7" id="svg_4"/>
  <path d="m0,116.47c0.65,-0.77 1.7,-0.91 1.89,-1.38c5.25,-13.37 14.4,-22.24 28.72,-25.26c1.57,-0.34 3.16,-0.8 4.74,-0.8c31.57,-0.04 63.14,-0.02 95.13,0.4c-5.24,6.32 -10.98,12.17 -16.52,18.21c-1.33,1.46 -1.98,3.54 -3.42,5.35c-23.1,0.01 -45.72,0 -68.35,0.01c-11.84,0 -18.16,6.26 -18.18,18.09c-0.04,14.64 -0.03,29.28 -0.4,43.92c-1.86,0.92 -3.57,1.59 -4.81,2.77c-4.3,4.1 -8.37,8.44 -12.67,12.53c-1.86,1.76 -4.08,3.14 -6.13,4.69c0,-26.02 0,-52.04 0,-78.53z" fill="#E2E2E2" id="svg_5"/>
  <path d="m425.46,424.91c0.32,-1.3 0.91,-2.72 1.91,-3.73c26.9,-26.96 53.83,-53.89 80.78,-80.79c0.91,-0.91 2.1,-1.55 3.51,-2.35c0.34,19.65 0.34,39.34 0.34,59.49c-0.64,0.8 -1.67,0.99 -1.87,1.49c-5.32,13.45 -14.75,22.15 -28.98,25.39c-1.26,0.29 -2.56,0.58 -3.84,0.58c-17.13,0.03 -34.26,0 -51.85,-0.08z" fill="#ACACAC" id="svg_6"/>
  <path d="m0,195.47c2.05,-2.02 4.27,-3.4 6.13,-5.16c4.3,-4.09 8.37,-8.43 12.67,-12.53c1.24,-1.18 2.95,-1.85 4.82,-2.3c0.36,33.49 0.36,66.51 0.01,99.57c-6.3,5.7 -12.19,11.45 -18.27,16.98c-1.47,1.34 -3.56,2 -5.36,2.97c0,-33.02 0,-66.04 0,-99.53z" fill="#DBDBDB" id="svg_7"/>
  <path d="m512,152.53c-1.47,1.44 -3.14,2.21 -4.38,3.42c-7.31,7.18 -14.5,14.48 -21.8,21.69c-1.26,1.24 -2.81,2.19 -4.57,2.88c1.54,-14.17 3.71,-27.9 5.18,-41.7c0.74,-6.98 3.37,-14.48 -2.39,-21.16c2.3,-2.9 4.59,-5.44 6.82,-8.03c3.54,-4.1 7.07,-8.14 13.26,-4.67c2.42,3.87 4.84,7.75 7.57,11.33c0.31,11.73 0.31,23.75 0.31,36.24z" fill="#BFBFBF" id="svg_8"/>
  <path d="m0,295.47c1.8,-1.44 3.89,-2.1 5.36,-3.44c6.08,-5.53 11.97,-11.28 18.28,-16.52c0.34,21.12 0.33,41.81 -0.05,62.5c-1.85,0.92 -3.56,1.6 -4.8,2.78c-4.3,4.09 -8.36,8.43 -12.67,12.52c-1.85,1.76 -4.07,3.14 -6.12,4.69c0,-20.69 0,-41.38 0,-62.53z" fill="#D6D6D6" id="svg_9"/>
  <path d="m0,358.47c2.05,-2.02 4.27,-3.4 6.12,-5.16c4.31,-4.09 8.37,-8.43 12.67,-12.52c1.24,-1.18 2.95,-1.86 4.82,-2.31c0.38,14.21 0.32,27.97 0.44,41.72c0.03,3.6 0.61,7.2 0.57,10.81c-3.97,2.68 -7.63,5.26 -11.13,8.05c-3.36,2.67 -6.13,5.63 -2.97,10.34c0.37,0.54 -0.35,1.81 -0.57,2.74c-3.11,-4.91 -6.21,-9.82 -9.63,-14.44c-0.32,-12.72 -0.32,-25.74 -0.32,-39.23z" fill="#D2D2D2" id="svg_10"/>
  <path d="m504.07,104.6c-6.14,-3.11 -9.67,0.93 -13.21,5.03c-2.23,2.59 -4.52,5.13 -7.13,7.88c-4.57,-1.38 -8.75,-4.18 -13.01,-4.3c-19.56,-0.51 -39.14,-0.27 -58.67,-0.64c4.94,-5.51 9.88,-10.63 14.7,-15.87c2.21,-2.39 4.17,-5.02 6.25,-7.54c15.07,-0.05 30.19,-0.82 45.21,0.07c10.58,0.63 19.48,6.1 25.86,15.37z" fill="#C4C4C4" id="svg_11"/>
  <path d="m193,89.17c21.35,-0.05 42.71,-0.1 64.49,0.25c-5.24,6.32 -10.98,12.17 -16.51,18.2c-1.33,1.46 -2,3.53 -3.44,5.34c-21.82,0.02 -43.18,0.01 -64.49,-0.34c5.68,-6.27 11.38,-12.13 16.9,-18.17c1.34,-1.46 2.05,-3.51 3.05,-5.28z" fill="#D6D6D6" id="svg_12"/>
  <path d="m192.53,89.09c-0.53,1.85 -1.24,3.9 -2.58,5.36c-5.52,6.04 -11.22,11.9 -17.37,18.18c-20.86,0.36 -41.22,0.35 -61.57,0.35c0.97,-1.8 1.62,-3.88 2.95,-5.34c5.54,-6.04 11.28,-11.89 16.99,-18.14c20.4,-0.38 40.76,-0.43 61.58,-0.41z" fill="#DBDBDB" id="svg_13"/>
  <path d="m309,89.17c20.35,-0.05 40.71,-0.1 61.48,0.26c-4.96,6.03 -10.39,11.62 -15.69,17.33c-1.76,1.9 -3.19,4.1 -5.24,6.19c-20.83,0.02 -41.19,0 -61.5,-0.35c4.93,-5.52 9.88,-10.65 14.7,-15.89c2.2,-2.4 4.17,-5.02 6.25,-7.54z" fill="#CECECE" id="svg_14"/>
  <path d="m350.02,112.92c1.58,-2.06 3.01,-4.26 4.77,-6.16c5.3,-5.71 10.73,-11.3 16.16,-17.26c20.4,-0.38 40.76,-0.43 61.58,-0.41c-1.61,2.59 -3.57,5.22 -5.78,7.61c-4.82,5.24 -9.76,10.36 -15.17,15.9c-20.86,0.35 -41.21,0.34 -61.56,0.32z" fill="#C8C8C8" id="svg_15"/>
  <path d="m308.53,89.09c-1.61,2.6 -3.58,5.22 -5.78,7.62c-4.82,5.24 -9.77,10.37 -15.17,15.91c-16.86,0.35 -33.22,0.34 -49.57,0.32c0.97,-1.79 1.64,-3.86 2.97,-5.32c5.53,-6.03 11.27,-11.88 16.97,-18.12c16.74,-0.38 33.43,-0.43 50.58,-0.41z" fill="#D2D2D2" id="svg_16"/>
  <path d="m302,395.98c-0.97,1.81 -1.61,3.93 -2.96,5.37c-7.22,7.7 -14.61,15.23 -22,23.15c-33.07,0.38 -66.09,0.43 -99.53,0.07c4.29,-5.7 9.02,-10.95 13.67,-16.28c2.03,-2.32 3.9,-4.79 6.3,-7.22c22.62,-0.05 44.76,-0.15 66.91,-0.04c12.8,0.06 25.64,0.85 37.61,-5.05z" fill="#BFBFBF" id="svg_17"/>
  <path d="m197.01,401.1c-1.93,2.4 -3.8,4.87 -5.83,7.19c-4.65,5.33 -9.38,10.58 -14.13,16.21c-20.75,0.38 -41.44,0.43 -62.54,0.08c5.24,-6.32 10.96,-12.16 16.49,-18.18c1.34,-1.46 2.02,-3.53 3.48,-5.34c21.15,-0.01 41.84,0.02 62.53,0.04z" fill="#C4C4C4" id="svg_18"/>
  <path d="m134.01,401.09c-0.99,1.78 -1.67,3.85 -3.01,5.31c-5.53,6.02 -11.25,11.86 -16.95,18.1c-20.08,0.38 -40.1,0.44 -60.54,0.08c4.83,-5.92 10.18,-11.34 15.29,-16.98c1.71,-1.89 2.83,-4.33 4.68,-6.55c20.49,0 40.51,0.02 60.53,0.04z" fill="#C8C8C8" id="svg_19"/>
  <path d="m73.02,401.07c-1.39,2.2 -2.51,4.64 -4.22,6.53c-5.11,5.64 -10.46,11.06 -15.76,16.9c-7.56,0.08 -15.11,0.21 -22.58,-0.53c-8.2,-0.81 -14.51,-5.63 -20.38,-11.52c0.09,-1.24 0.81,-2.51 0.44,-3.05c-3.16,-4.71 -0.39,-7.67 2.97,-10.34c3.5,-2.79 7.16,-5.37 11.29,-7.76c4.5,7.53 10.65,10.12 18.78,9.8c9.8,-0.39 19.64,-0.05 29.46,-0.03z" fill="#CECECE" id="svg_20"/>
  <path d="m73.48,401.05c-10.28,0 -20.12,-0.34 -29.92,0.05c-8.13,0.32 -14.28,-2.27 -18.41,-9.8c-0.49,-3.9 -1.07,-7.5 -1.1,-11.1c-0.12,-13.75 -0.06,-27.51 -0.08,-41.72c0,-21.16 0.01,-41.85 0.01,-63c0,-33.49 0,-66.51 0,-100c0,-15.11 -0.01,-29.75 0.03,-44.39c0.02,-11.83 6.34,-18.09 18.18,-18.09c22.63,-0.01 45.25,0 68.35,-0.01c20.82,-0.01 41.18,0 62,-0.01c21.82,-0.01 43.18,0 65,-0.02c16.82,0 33.18,0.01 50,0c20.82,-0.01 41.18,0.01 62.01,-0.01c20.82,-0.01 41.17,0 61.99,-0.01c20.04,0 39.62,-0.24 59.18,0.27c4.26,0.12 8.44,2.92 12.97,4.64c6.11,6.49 3.48,13.99 2.74,20.97c-1.47,13.8 -3.64,27.53 -5.53,41.72c-3.23,12.11 -6.29,23.84 -9.72,35.46c-6.77,22.95 -16.93,44.39 -29.44,64.74c-12.06,19.63 -26.35,37.47 -43.19,53.24c-1.57,1.47 -2.97,3.14 -4.9,4.94c-7.87,-3.34 -12.13,-2.7 -17.92,3.04c-8.73,8.66 -17.49,17.29 -26.02,26.14c-2.12,2.19 -3.4,5.19 -5.07,7.82c-3.39,1.61 -6.78,3.22 -10.18,4.81c-10.61,4.97 -21.23,9.94 -32.16,15.08c-12.27,6.07 -25.11,5.28 -37.91,5.22c-22.15,-0.11 -44.29,-0.01 -66.91,0.04c-21.16,0.01 -41.85,-0.02 -63,-0.01c-20.49,0.01 -40.51,-0.01 -61,-0.01m259.51,-114.9c5.12,-12.82 6.51,-26.2 4.69,-39.72c-5.01,-37.41 -33.03,-65.41 -70.64,-71.14c-35.02,-5.35 -70.56,14.28 -86,47.59c-1.01,2.18 -1.39,4.65 -2.74,7.32c-5.16,12.53 -6,25.69 -3.86,38.75c7.78,47.42 49.96,77.6 97.13,68.82c29.39,-5.47 49.93,-22.95 61.42,-51.62m45.92,-111.31c6.99,3.56 12.87,2.6 16.95,-2.74c3.93,-5.16 3.35,-11.9 -1.82,-17.16c-9.36,-9.5 -18.73,-18.99 -28.36,-28.21c-5.35,-5.13 -12.56,-4.8 -17.46,0.15c-4.79,4.83 -5.05,12.36 -0.01,17.53c9.88,10.14 20.05,20 30.7,30.43m-223.48,186.23c-6.82,-6.81 -13.54,-13.73 -20.51,-20.39c-5.4,-5.16 -12.92,-4.95 -17.85,0.11c-4.67,4.79 -4.8,12.34 0.22,17.5c9.49,9.78 19.12,19.43 28.92,28.89c5.32,5.13 12.48,4.92 17.45,0.08c4.95,-4.83 5,-12.41 -0.01,-17.9c-2.46,-2.7 -5.14,-5.2 -8.22,-8.29m-15.8,-227.94c-7.52,7.54 -15.18,14.95 -22.51,22.67c-4.79,5.03 -4.59,12.23 -0.07,17.14c4.48,4.86 11.63,5.87 16.55,1.23c10.53,-9.92 20.78,-20.16 30.69,-30.69c4.42,-4.7 3.52,-11.83 -0.92,-16.29c-4.49,-4.49 -11.77,-4.93 -16.79,-0.81c-2.3,1.89 -4.31,4.15 -6.95,6.75m210.07,207.07c3.88,-3.89 7.85,-7.7 11.64,-11.68c5.45,-5.71 5.62,-13.19 0.58,-18.3c-4.98,-5.04 -12.62,-4.87 -18.25,0.66c-8.68,8.52 -17.27,17.13 -25.79,25.79c-5.59,5.68 -5.78,13.07 -0.68,18.22c5.18,5.23 12.38,5.13 18.19,-0.44c4.69,-4.49 9.21,-9.16 14.31,-14.25m-159.54,-184.13c-5.51,-1.74 -10.04,-0.13 -14.01,3.88c-8.41,8.5 -16.96,16.87 -25.34,25.41c-5.58,5.7 -5.79,13.1 -0.76,18.21c5.09,5.19 12.81,4.95 18.6,-0.74c8.4,-8.28 16.76,-16.62 25.03,-25.02c7.38,-7.5 6.21,-16 -3.52,-21.74m-39.1,153.31c-6.09,6.51 -6.22,13.06 -0.17,19.22c8.39,8.53 16.85,16.99 25.37,25.38c5.89,5.81 13.39,6.06 18.56,0.81c5.11,-5.19 4.76,-12.71 -1.04,-18.59c-8.28,-8.4 -16.63,-16.73 -25.03,-25.02c-5.46,-5.39 -10.27,-5.95 -17.69,-1.8m192.45,-106.3c6.42,5.53 13.61,5.69 18.59,0.42c5.03,-5.32 4.53,-12.56 -1.41,-18.57c-8.19,-8.28 -16.41,-16.5 -24.68,-24.68c-6.15,-6.08 -13.65,-6.39 -18.92,-0.94c-5.06,5.24 -4.61,12.66 1.24,18.57c8.19,8.27 16.44,16.47 25.18,25.2z" fill="#F1F1F1" id="svg_21"/>
  <path d="m344.72,376.35c1.59,-3.06 2.87,-6.06 4.99,-8.25c8.53,-8.85 17.29,-17.48 26.02,-26.14c5.79,-5.74 10.05,-6.38 17.84,-2.69c6.58,8.55 6.25,14 -1.08,21.39c-8.41,8.48 -16.81,16.98 -25.36,25.32c-6.94,6.76 -15.03,6.7 -19.85,-0.38c-1.63,-2.4 -1.7,-5.85 -2.56,-9.25z" fill="#040404" id="svg_22"/>
  <path d="m332.74,286.85c-11.24,27.97 -31.78,45.45 -61.17,50.92c-47.17,8.78 -89.35,-21.4 -97.13,-68.82c-2.14,-13.06 -1.3,-26.22 4.51,-38.68c0.81,0.88 1,1.69 1.12,2.51c4.8,31.08 38.12,47.74 65.23,32.32c5.26,-2.99 9.71,-7.48 14.35,-11.5c18.89,-16.33 48.27,-13.32 63.49,6.46c6.12,7.95 8.69,17.04 9.6,26.79z" fill="#0147A0" id="svg_23"/>
  <path d="m332.87,286.5c-1.04,-9.4 -3.61,-18.49 -9.73,-26.44c-15.22,-19.78 -44.6,-22.79 -63.49,-6.46c-4.64,4.02 -9.09,8.51 -14.35,11.5c-27.11,15.42 -60.43,-1.24 -65.23,-32.32c-0.12,-0.82 -0.31,-1.63 -0.78,-2.67c0.36,-2.58 0.74,-5.05 1.75,-7.23c15.44,-33.31 50.98,-52.94 86,-47.59c37.61,5.73 65.63,33.73 70.64,71.14c1.82,13.52 0.43,26.9 -4.81,40.07z" fill="#CD2F3B" id="svg_24"/>
  <path d="m378.61,174.62c-10.35,-10.21 -20.52,-20.07 -30.4,-30.21c-5.04,-5.17 -4.78,-12.7 0.01,-17.53c4.9,-4.95 12.11,-5.28 17.46,-0.15c9.63,9.22 19,18.71 28.36,28.21c5.17,5.26 5.75,12 1.82,17.16c-4.08,5.34 -9.96,6.3 -17.25,2.52z" fill="#040404" id="svg_25"/>
  <path d="m155.68,361.32c2.83,2.84 5.51,5.34 7.97,8.04c5.01,5.49 4.96,13.07 0.01,17.9c-4.97,4.84 -12.13,5.05 -17.45,-0.08c-9.8,-9.46 -19.43,-19.11 -28.92,-28.89c-5.02,-5.16 -4.89,-12.71 -0.22,-17.5c4.93,-5.06 12.45,-5.27 17.85,-0.11c6.97,6.66 13.69,13.58 20.76,20.64z" fill="#040404" id="svg_26"/>
  <path d="m139.88,132.88c2.39,-2.35 4.4,-4.61 6.7,-6.5c5.02,-4.12 12.3,-3.68 16.79,0.81c4.44,4.46 5.34,11.59 0.92,16.29c-9.91,10.53 -20.16,20.77 -30.69,30.69c-4.92,4.64 -12.07,3.63 -16.55,-1.23c-4.52,-4.91 -4.72,-12.11 0.07,-17.14c7.33,-7.72 14.99,-15.13 22.76,-22.92z" fill="#040404" id="svg_27"/>
  <path d="m349.45,340.45c-4.85,4.84 -9.37,9.51 -14.06,14c-5.81,5.57 -13.01,5.67 -18.19,0.44c-5.1,-5.15 -4.91,-12.54 0.68,-18.22c8.52,-8.66 17.11,-17.27 25.79,-25.79c5.63,-5.53 13.27,-5.7 18.25,-0.66c5.04,5.11 4.87,12.59 -0.58,18.3c-3.79,3.98 -7.76,7.79 -11.89,11.93z" fill="#020202" id="svg_28"/>
  <path d="m190.52,156.21c9.37,5.6 10.54,14.1 3.16,21.6c-8.27,8.4 -16.63,16.74 -25.03,25.02c-5.79,5.69 -13.51,5.93 -18.6,0.74c-5.03,-5.11 -4.82,-12.51 0.76,-18.21c8.38,-8.54 16.93,-16.91 25.34,-25.41c3.97,-4.01 8.5,-5.62 14.37,-3.74z" fill="#020202" id="svg_29"/>
  <path d="m151.38,309.15c7.1,-3.92 11.91,-3.36 17.37,2.03c8.4,8.29 16.75,16.62 25.03,25.02c5.8,5.88 6.15,13.4 1.04,18.59c-5.17,5.25 -12.67,5 -18.56,-0.81c-8.52,-8.39 -16.98,-16.85 -25.37,-25.38c-6.05,-6.16 -5.92,-12.71 0.49,-19.45z" fill="#020202" id="svg_30"/>
  <path d="m343.25,202.83c-8.48,-8.48 -16.73,-16.68 -24.92,-24.95c-5.85,-5.91 -6.3,-13.33 -1.24,-18.57c5.27,-5.45 12.77,-5.14 18.92,0.94c8.27,8.18 16.49,16.4 24.68,24.68c5.94,6.01 6.44,13.25 1.41,18.57c-4.98,5.27 -12.17,5.11 -18.85,-0.67z" fill="#020202" id="svg_31"/>
 </g>
</svg>