<?xml version="1.0"?>
<svg width="512" height="512" xmlns="http://www.w3.org/2000/svg" xmlns:svg="http://www.w3.org/2000/svg" enable-background="new 0 0 512 512" version="1.1" xml:space="preserve">
 <g class="layer">
  <title>Layer 1</title>
  <path d="m1,116.47c1.41,-2.62 2.79,-4.79 4.24,-6.91c0.99,-1.46 2.09,-2.86 3.77,-4.24c6.3,2.12 2.93,5.99 1.58,10.9c4.89,-3.81 8.91,-6.38 13.45,-1.07c-2.12,-5.68 -0.45,-9.3 4.71,-11.59c-1.19,-0.47 -1.96,-0.7 -2.66,-0.57c-3.96,0.71 -6.29,-0.77 -6.96,-4.82c-0.12,-0.77 -0.7,-1.46 -1.07,-2.19c5.84,-4.88 12.94,-6.75 20.16,-6.86c22.61,-0.32 45.23,-0.08 68.29,0.34c-2.58,3.46 -5.61,6.52 -8.88,9.36c-0.54,-0.93 -0.85,-1.65 -1.96,-4.2c-0.63,7.56 -4.26,9.72 -11.25,8.09c4.06,3.62 9.1,5.11 4.83,10.28c-8.84,0.05 -17.23,0.09 -25.83,-0.13c-3.84,-5.48 2.11,-6.52 4.4,-9.59c-2.87,-0.18 -5.64,0.43 -7.23,-0.67c-1.69,-1.18 -2.25,-3.98 -4.12,-7.69c-0.26,7.77 -4.44,9.12 -11.23,7.9c4.22,3.5 9.15,4.99 4.99,10.18c-2.27,0 -4.11,0.13 -5.93,-0.01c-12.83,-1.01 -19.77,8.33 -19.37,19.27c0.35,9.8 0.06,19.63 -0.33,29.53c-5.77,1.27 -4.05,-4.8 -7.45,-6.85c0.28,7.11 -4.53,7.44 -9.96,7.56c4.97,2.44 7.88,5.14 3.45,10.68c1.85,-0.32 3.07,-0.16 3.66,-0.69c2.52,-2.26 4.82,-2.45 7.36,-0.06c0.49,0.47 1.53,0.35 2.32,0.77c0.01,0.45 0.02,0.63 -0.14,1.1c-6.27,6.47 -12.32,12.72 -18.54,18.79c-1.06,1.03 -2.85,1.3 -4.3,1.92c0,-26.02 0,-52.04 0,-78.53z" fill="#393867" id="svg_3" opacity="1"/>
  <path d="m513,322c0,8.02 0,16.04 -0.46,24.63c-15.81,0.73 -31.16,0.88 -46.97,0.9c-2.94,-0.17 -5.43,-0.23 -7.91,-0.23c-20.89,-0.06 -41.79,-0.12 -62.63,-0.52c5.94,-6.59 11.92,-12.76 17.68,-19.13c1.46,-1.6 2.23,-3.84 3.77,-5.86c20.38,-0.08 40.29,-0.12 60.2,-0.07c12.11,0.03 24.21,0.18 36.32,0.28z" fill="#B1B1B1" id="svg_4" opacity="1"/>
  <path d="m513,321.53c-12.11,0.37 -24.21,0.22 -36.32,0.19c-19.91,-0.05 -39.82,-0.01 -60.5,-0.06c-1.63,-0.18 -2.49,-0.31 -3.18,-0.75c6.48,-8.48 12.77,-16.64 19.29,-24.91c0.38,-0.16 0.54,-0.23 1.15,-0.21c26.83,0.12 53.2,0.16 79.56,0.21c0,8.35 0,16.71 0,25.53z" fill="#841927" id="svg_5" opacity="1"/>
  <path d="m513,295.53c-26.36,0.42 -52.73,0.38 -79.42,-0.04c4.88,-8.7 10.1,-17.03 15.59,-25.45c0.45,-0.16 0.62,-0.22 1.27,-0.21c21.16,0.1 41.86,0.13 62.56,0.17c0,8.35 0,16.71 0,25.53z" fill="#B4B4B4" id="svg_6" opacity="1"/>
  <path d="m1,195.47c1.45,-1.09 3.24,-1.36 4.3,-2.39c6.22,-6.07 12.27,-12.32 18.8,-18.47c0.58,1.84 0.87,3.64 0.88,5.44c0.05,13.44 0.05,26.88 -0.35,40.44c-5.67,1.33 -4.06,-4.8 -6.91,-6.27c-2.41,5.44 -2.41,5.44 -10.92,7.32c6.43,2.16 7.28,6.13 4.39,12.05c4.87,-6.34 9.09,-3.7 13.31,-0.65c0.12,0.08 0.33,0.03 0.49,0.51c0.02,12.42 0.04,24.38 -0.41,36.42c-8.17,0.1 -15.87,0.11 -23.58,0.13c0,-24.69 0,-49.38 0,-74.53z" fill="#373664" id="svg_7" opacity="1"/>
  <path d="m466.03,347.66c15.35,-0.15 30.7,-0.3 46.51,-0.56c0.46,8.25 0.46,16.61 0,25.51c-9.47,0.69 -18.48,0.84 -27.9,0.9c-13.49,-0.23 -26.56,-0.37 -39.63,-0.87c1.05,-1.99 1.84,-3.85 3.15,-5.22c4.84,-5.04 9.9,-9.86 14.74,-14.9c1.31,-1.37 2.1,-3.23 3.13,-4.86z" fill="#801926" id="svg_8" opacity="1"/>
  <path d="m513,269.53c-20.7,0.43 -41.4,0.4 -62.53,-0.06c0.01,-1.46 0.47,-2.5 0.93,-3.54c3.23,-7.23 6.46,-14.45 9.91,-21.76c0.22,-0.09 0.67,-0.28 1.14,-0.21c17.16,0.06 33.85,0.05 50.55,0.04c0,8.35 0,16.71 0,25.53z" fill="#871B28" id="svg_9" opacity="1"/>
  <path d="m513,243.53c-16.7,0.48 -33.39,0.49 -50.47,0.08c2.55,-8.73 5.49,-17.04 8.69,-25.45c0.44,-0.17 0.62,-0.22 1.26,-0.18c13.82,0.06 27.17,0.04 40.52,0.02c0,8.35 0,16.71 0,25.53z" fill="#BFBABB" id="svg_10" opacity="1"/>
  <path d="m485.05,373.6c9.01,-0.15 18.02,-0.3 27.49,-0.52c0.46,7.94 0.46,15.96 0.46,24.45c-0.6,0.51 -1.19,0.54 -2.18,1.03c-0.39,0.46 -0.81,0.68 -1.27,0.62c-15.5,-0.14 -30.53,-0.21 -45.5,-0.63c1.11,-1.99 1.92,-3.87 3.25,-5.26c4.81,-5.02 9.85,-9.81 14.66,-14.83c1.3,-1.36 2.07,-3.23 3.09,-4.86z" fill="#ACA7A8" id="svg_11" opacity="1"/>
  <path d="m513,217.53c-13.35,0.49 -26.7,0.51 -40.51,0.07c1.86,-8.65 4.16,-16.82 6.92,-25.12c11.5,-0.25 22.54,-0.36 33.59,-0.48c0,8.35 0,16.71 0,25.53z" fill="#891A28" id="svg_12" opacity="1"/>
  <path d="m513,191.53c-11.05,0.59 -22.09,0.7 -33.62,0.8c-0.48,-0.03 -0.43,-0.34 -0.36,-0.73c1.64,-8.57 3.21,-16.75 5.26,-25.03c9.88,-0.26 19.3,-0.42 28.72,-0.57c0,8.35 0,16.71 0,25.53z" fill="#C0AEB1" id="svg_13" opacity="1"/>
  <path d="m513,165.53c-9.42,0.62 -18.84,0.78 -28.76,0.92c-0.5,-0.01 -0.39,-0.23 -0.33,-0.65c1.07,-8.51 2.09,-16.6 3.56,-24.79c8.82,-0.08 17.17,-0.05 25.53,-0.01c0,8.02 0,16.04 0,24.53z" fill="#8C1B29" id="svg_14" opacity="1"/>
  <path d="m513,140.53c-8.36,0.43 -16.71,0.4 -25.57,0.34c-0.5,-0.03 -0.43,-0.32 -0.39,-0.71c1.4,-9.25 3.42,-18.24 -4.64,-25.14c9.5,-0.19 18.55,-0.28 27.79,-0.26c0.21,0.1 0.65,0.21 0.65,0.21c0.56,0.58 1.12,1.15 1.92,1.38c0.24,7.67 0.24,15.69 0.24,24.18z" fill="#C7B8BB" id="svg_15" opacity="1"/>
  <path d="m3.15,398.86c-0.59,-0.55 -1.17,-1.1 -1.95,-1.25c-0.2,-7.63 -0.2,-15.65 0.26,-24.05c8.2,-0.28 15.94,-0.19 23.65,0.34c-0.59,9.42 -0.62,18.25 6.45,25.04c-7.82,0.17 -15.18,0.24 -22.95,0.23c-2.1,-0.15 -3.78,-0.23 -5.46,-0.31z" fill="#D0D0D0" id="svg_16" opacity="1"/>
  <path d="m1,270.47c7.71,-0.49 15.41,-0.5 23.6,-0.5c0.48,0.02 0.37,0.2 0.37,0.66c0.05,8.66 0.09,16.87 -0.34,25.15c-8.19,0.12 -15.91,0.17 -23.63,0.22c0,-8.35 0,-16.71 0,-25.53z" fill="#DDD1D3" id="svg_17" opacity="1"/>
  <path d="m25.13,373.47c-7.73,-0.1 -15.47,-0.19 -23.67,-0.38c-0.46,-8.44 -0.46,-16.8 -0.01,-25.5c8.18,-0.18 15.9,-0.02 23.59,0.56c-0.01,8.58 0,16.75 0.05,25.01c0.06,0.09 0.04,0.31 0.04,0.31z" fill="#9B1E2D" id="svg_18" opacity="1"/>
  <path d="m1,296.47c7.72,-0.52 15.44,-0.57 23.64,-0.59c0.48,0.02 0.34,0.17 0.35,0.64c-0.01,8.47 -0.01,16.48 -0.22,24.61c-0.46,0.3 -0.67,0.53 -1.28,0.84c-7.81,0.02 -15.15,0.03 -22.49,0.03c0,-8.35 0,-16.71 0,-25.53z" fill="#9D1E2E" id="svg_19" opacity="1"/>
  <path d="m1,322.47c7.34,-0.47 14.68,-0.48 22.81,-0.52c0.98,-0.13 1.18,-0.21 1.39,-0.19c0.03,0.1 -0.17,0.16 -0.18,0.63c0,8.53 0,16.58 0.01,24.81c0.02,0.18 0.03,0.53 0.03,0.53c-7.71,-0.16 -15.43,-0.32 -23.61,-0.61c-0.45,-8.14 -0.45,-16.16 -0.45,-24.65z" fill="#D5D5D5" id="svg_20" opacity="1"/>
  <path d="m509.99,114.65c-9.04,0.09 -18.09,0.18 -27.96,0.3c-1.55,-0.08 -2.28,-0.19 -3.27,-0.57c-2.49,-0.65 -4.73,-1.34 -6.97,-1.34c-50.71,-0.06 -101.41,-0.05 -152.12,-0.07c-2.04,0 -4.09,-0.22 -7.58,-0.42c2.56,-3.06 4.14,-5.08 5.86,-6.98c4.98,-5.49 10.02,-10.94 15.03,-16.4c22.16,-0.06 44.32,-0.14 66.48,-0.17c24.83,-0.03 49.67,0.05 74.5,-0.01c17.11,-0.04 28.59,8.46 36.01,23.97c0.03,0.98 0.03,1.33 0.02,1.69z" fill="#921C2B" id="svg_21" opacity="1"/>
  <path d="m332.51,89.12c-4.54,5.51 -9.58,10.96 -14.56,16.45c-1.72,1.9 -3.3,3.92 -5.86,6.98c3.49,0.2 5.54,0.42 7.58,0.42c50.71,0.02 101.41,0.01 152.12,0.07c2.24,0 4.48,0.69 6.51,1.42c-47.83,0.38 -95.45,0.38 -143.07,0.4c-34.97,0.02 -69.94,0.07 -104.97,-0.23c-0.14,-0.76 -0.22,-1.19 -0.25,-2.09c0.09,-8.1 0.12,-15.73 0.15,-23.35c33.96,-0.04 67.93,-0.09 102.35,-0.07z" fill="#9E2131" id="svg_22" opacity="1"/>
  <path d="m229.68,89.13c0.45,7.68 0.42,15.31 -0.12,23.41c-3.54,0.46 -6.57,0.46 -9.85,0.22c-0.72,-1.62 -1.17,-3.01 -1.65,-4.46c2.06,-1.61 3.95,-3.08 5.85,-4.56c-6.11,0.95 -9.4,-1.61 -10.58,-7.98c-0.88,6.7 -4.86,8.38 -10.79,7.64c3.49,2.79 8.07,4.47 3.81,9.59c-8.78,0.01 -17.11,0.03 -25.69,-0.2c-0.72,-1.62 -1.19,-3.01 -1.69,-4.49c2,-1.58 3.84,-3.05 5.69,-4.52c-6.06,0.69 -9.24,-1.83 -10.4,-8.04c-0.9,6.67 -4.85,8.42 -11.98,7.02c4.56,3.51 9.42,5.04 5.08,10.23c-8.82,0.03 -17.18,0.05 -25.8,-0.17c-4,-5.47 2.14,-6.45 4.7,-10.16c-6.52,1.61 -10.03,-0.43 -11.02,-6.94c-1.08,6.5 -4.81,8.54 -11.98,6.99c4.46,3.57 9.28,5.13 5.04,10.28c-8.83,0.04 -17.2,0.07 -25.81,-0.15c-3.86,-5.49 2.14,-6.46 4.25,-9.35c-3.26,-1.48 -8.66,1.94 -8.87,-4.46c3.03,-3.05 6.06,-6.11 9.11,-9.52c40.75,-0.38 81.49,-0.41 122.7,-0.38z" fill="#373663" id="svg_23" opacity="1"/>
  <path d="m17.75,96.15c0.68,0.56 1.26,1.25 1.38,2.02c0.67,4.05 3,5.53 6.96,4.82c0.7,-0.13 1.47,0.1 2.66,0.57c-5.16,2.29 -6.83,5.91 -4.71,11.59c-4.54,-5.31 -8.56,-2.74 -13.45,1.07c1.35,-4.91 4.72,-8.78 -1.26,-11.03c2.5,-3.07 5.3,-5.98 8.42,-9.04z" fill="#D8D8DB" id="svg_24" opacity="1"/>
  <path d="m510.19,114.76c-0.19,-0.47 -0.19,-0.82 -0.18,-1.44c0.31,0.18 0.62,0.63 0.88,1.37c-0.05,0.28 -0.49,0.17 -0.7,0.07z" fill="#9E2131" id="svg_25" opacity="1"/>
  <path d="m9.02,399.26c7.36,-0.08 14.72,-0.15 22.87,-0.24c1.24,0.07 1.68,0.15 2.42,0.48c2.87,0.66 5.44,1.45 8.02,1.46c46.56,0.08 93.13,0.07 139.63,0.42c-5.29,5.86 -10.6,11.3 -15.69,16.94c-1.72,1.91 -2.87,4.33 -4.28,6.52c-42.32,0.05 -84.65,0.37 -126.97,-0.02c-9.89,-0.1 -18.06,-5.77 -25,-13.6c-0.39,-0.77 -0.6,-0.99 -0.86,-1.16c-0.32,-0.47 -0.65,-0.94 -1.07,-2.1c0.24,-3.35 0.58,-6.03 0.93,-8.7z" fill="#921C2B" id="svg_26" opacity="1"/>
  <path d="m162.46,424.9c0.94,-2.25 2.09,-4.67 3.81,-6.58c5.09,-5.64 10.4,-11.08 16.15,-16.95c34.35,-0.35 68.17,-0.32 101.99,-0.43c2.53,-0.01 5.06,-1.08 7.97,-1.75c1.44,-0.17 2.49,-0.26 4,-0.25c4.51,0.18 8.57,0.26 12.61,0.68c-0.97,1.82 -1.72,3.49 -2.91,4.73c-4.68,4.85 -9.6,9.47 -14.21,14.38c-1.62,1.73 -2.6,4.05 -3.88,6.11c-41.69,0.04 -83.38,0.08 -125.53,0.06z" fill="#8C1B29" id="svg_27" opacity="1"/>
  <path d="m288.46,424.9c0.81,-2.12 1.79,-4.44 3.41,-6.17c4.61,-4.91 9.53,-9.53 14.21,-14.38c1.19,-1.24 1.94,-2.91 3.37,-4.8c19.17,-0.5 37.85,-0.58 57.01,-0.59c19.49,0.15 38.52,0.23 57.54,0.67c-2.03,3.22 -3.83,6.27 -6.12,8.9c-4.82,5.55 -9.91,10.89 -14.88,16.31c-38.03,0.04 -76.05,0.08 -114.54,0.06z" fill="#841927" id="svg_28" opacity="1"/>
  <path d="m403.46,424.9c4.51,-5.48 9.6,-10.82 14.42,-16.37c2.29,-2.63 4.09,-5.68 6.58,-8.98c13.49,-0.51 26.51,-0.58 39.53,-0.66c15.03,0.08 30.06,0.15 45.67,0.45c0.76,0.41 0.98,0.55 1.23,0.64c-7.69,16.27 -19.8,25.4 -38.51,25.1c-22.82,-0.36 -45.64,-0.11 -68.92,-0.18z" fill="#7F1825" id="svg_29" opacity="1"/>
  <path d="m8.61,399.17c0.06,2.76 -0.28,5.44 -0.64,8.53c-1.64,-2.42 -3.26,-5.26 -4.86,-8.47c1.72,-0.29 3.4,-0.21 5.5,-0.06z" fill="#9E2433" id="svg_30" opacity="1"/>
  <path d="m510.93,399.7c-0.29,0.19 -0.51,0.05 -0.81,-0.3c-0.11,-0.16 0.31,-0.38 0.54,-0.46c0.25,0.11 0.28,0.29 0.27,0.76z" fill="#842C37" id="svg_31" opacity="1"/>
  <path d="m9.19,410.3c0.23,-0.07 0.44,0.15 0.69,0.63c-0.23,0.09 -0.48,-0.1 -0.69,-0.63z" fill="#9E2433" id="svg_32" opacity="1"/>
  <path d="m180.92,113.03c8.32,-0.01 16.65,-0.03 25.43,0.24c0.74,0.81 1.04,1.35 1.33,1.88c1.9,-1.24 3.8,-2.49 5.78,-3.79c1.75,1.2 3.33,2.35 5.01,3.33c0.13,0.07 0.98,-1.1 1.49,-1.69c3.03,0 6.06,0 9.55,0c0.53,0.44 0.61,0.87 0.71,2.11c0.08,9.07 0.14,17.33 0.12,26.08c-0.02,8.77 0.04,17.07 0.02,25.79c-0.04,8.67 -0.01,16.91 -0.05,25.61c-0.01,8.83 0.05,17.2 0.05,26.02c-0.03,8.77 0.01,17.09 -0.04,25.87c-0.12,8.75 -0.16,17.03 -0.68,25.4c-66.38,0.09 -132.29,0.1 -198.19,0.12c-2.16,0 -4.32,0.11 -6.48,0.17c0,0 0.11,-0.18 0.1,-0.28c-0.04,-12.06 -0.06,-24.02 -0.16,-36.8c-3.61,-6.03 -1.03,-9.32 4.96,-12c-2.62,-0.39 -3.73,-0.55 -4.83,-0.72c-0.01,-13.44 -0.01,-26.88 -0.06,-40.32c-0.01,-1.8 -0.3,-3.6 -0.72,-5.73c-0.26,-0.5 -0.27,-0.68 -0.25,-1.51c-3.1,-5.97 1.47,-7.93 5.4,-10.65c-2.15,-0.22 -3.28,-0.34 -4.42,-0.46c0,-9.82 0.29,-19.65 -0.06,-29.45c-0.4,-10.94 6.54,-20.28 19.37,-19.27c1.82,0.14 3.66,0.01 5.9,0.29c1,0.62 1.98,1.37 2.12,1.24c3.11,-2.98 6.15,-3.47 9.4,-0.19c0.11,0.12 1.25,-0.77 1.91,-1.19c8.39,-0.05 16.78,-0.09 25.54,0.18c0.3,0.47 0.19,0.61 0.15,0.76c-0.04,0.15 0,0.31 0.01,0.46c4.44,-1.73 8.89,-3.52 13.15,0.42c0.08,-0.62 0.16,-1.23 0.24,-1.85c8.38,-0.04 16.75,-0.07 25.57,0.17c-0.28,4.05 2.03,1.46 2.45,1.06c2.94,-2.78 5.69,-3.28 8.76,-0.14c1.26,1.29 2.69,1.62 2.31,-1.13c8.37,-0.02 16.73,-0.04 25.55,0.21c-0.14,3.98 2.08,1.46 2.54,1.02c2.93,-2.8 5.66,-3.22 8.7,-0.1c1.38,1.41 2.62,1.38 2.32,-1.16m-18.8,91.27c0.03,-0.15 0.05,-0.31 0.08,-0.46c-0.16,0.25 -0.32,0.5 0.11,0.04c-1.89,-4.95 -1.46,-9.13 4.71,-11.75c-6.71,1.65 -9.8,-1.39 -11.45,-7.37c-0.26,7.45 -5.06,7.77 -10.4,7.62c4.16,2.77 8.2,5.02 3.9,10.84c4.78,-2.04 9.27,-3.98 13.05,1.08m-50.4,-0.41c3.28,-3.81 7.05,-3.66 11.57,-0.57c-3.36,-6.13 0.88,-8.25 5.18,-11.12c-3.49,-0.16 -5.89,-0.27 -8.35,-0.38c-0.95,-2.21 -1.86,-4.33 -2.77,-6.44c-1.03,6.55 -5.35,7.48 -11.1,6.96c5.37,2.53 6.96,5.95 4.43,10.89c-0.13,0.26 0.33,0.83 0.4,0.72c-0.23,0.06 -0.46,0.11 -0.69,0.17c0.26,0.08 0.52,0.17 1.33,-0.23m-38.89,0.02c3.88,-4.28 7.82,-3.33 12.14,-0.23c-0.64,-2.15 -1.27,-4.29 -1.94,-6.58c2.03,-1.54 3.98,-3.01 6.94,-5.25c-3.88,0 -6.33,0 -8.79,0c-0.49,-1.33 -0.87,-2.42 -1.29,-3.5c-0.4,-1.04 -0.84,-2.07 -1.26,-3.1c-0.47,-0.37 -0.94,-0.73 -1.41,-1.1c0.86,8.46 -4.23,8.25 -9.75,8.15c5.42,2.57 6.8,6.23 4.4,11.22c-0.08,0.17 0.27,0.56 0.18,0.62c-0.09,-0.01 -0.19,-0.01 -0.29,-0.02c0.15,0.06 0.31,0.11 1.07,-0.21m-40,0.02c3.88,-4.02 7.85,-3.65 12.43,0.45c-3.92,-6.19 -0.84,-9.39 3.55,-12.4c-2.45,0 -4.9,0 -7.38,0c-0.99,-2.43 -1.89,-4.63 -3.47,-8.47c-0.48,7.73 -4.25,9.71 -10.72,8.92c6.39,2.22 6.99,5.99 4.69,10.83c-0.1,0.21 0.19,0.61 0.15,0.87c0,0 0.06,-0.02 0.75,-0.2m167.29,-58.59c0.15,-0.06 0.3,-0.12 0.45,-0.18c-0.21,-0.03 -0.42,-0.05 -0.33,-0.85c-2.68,-4.96 -0.59,-8.24 4.55,-10.92c-6.59,1.26 -9.9,-1.41 -10.78,-8.5c-1.45,3.62 -2.29,5.75 -3.19,8c-2.56,0.14 -5.05,0.28 -8.3,0.47c2.65,2.04 4.58,3.53 6.43,4.96c-0.7,2.46 -1.31,4.61 -1.92,6.77c4.53,-4.46 8.75,-2.87 13.09,0.25m-127.42,-0.3c3.94,-3.83 7.93,-3.42 12.25,-0.2c-0.63,-2.15 -1.26,-4.3 -1.9,-6.51c2.03,-1.58 3.93,-3.06 5.83,-4.54c-5.95,0.72 -9.5,-1.48 -10.12,-8.38c-1.63,3.19 -2.22,6.07 -3.97,7.28c-1.65,1.14 -4.51,0.51 -6.84,0.65c5.37,2.65 6.05,6.43 4,11.23c-0.06,0.12 0.07,0.32 -0.23,0.44c0.08,-0.02 0.17,-0.04 0.98,0.03m34.53,-10.52c5.3,2.07 5.61,5.85 3.16,11.06c4.76,-4.53 9.04,-4.22 13.88,1.1c-1.07,-3.83 -1.71,-6.16 -2.34,-8.42c2.04,-1.59 3.81,-2.97 5.58,-4.35c-5.41,0.02 -9.62,-1.04 -10.54,-8.51c0.05,8.43 -5.37,7.68 -10.04,8.07c-0.04,0.01 -0.06,0.31 0.3,1.05m46.9,-4.55c-0.96,5.51 -5.8,1.86 -9.49,4.22c7.49,1.7 6.61,6.36 4.46,11.62c4.29,-3.75 8.32,-5.33 13.44,-0.59c-4.02,-6.32 0.45,-8.89 4.13,-12.03c-6.3,1.35 -9.58,-1.19 -10.51,-8.17c-1.02,2.46 -1.39,3.35 -2.03,4.95m-116.85,-1.88c-0.16,6.49 -5.69,4.52 -10.87,5.7c6.9,2.33 8.28,6.02 4.36,12.36c3.68,-2.19 5.66,-3.35 7.66,-4.54c2.1,1.21 4.11,2.39 6.8,3.95c-0.87,-3.08 -1.47,-5.25 -2.05,-7.31c2.14,-1.62 4.02,-3.05 5.91,-4.47c-5.4,0.16 -9.35,-0.72 -10.03,-6.68c-0.48,0.1 -0.96,0.21 -1.78,0.99m12.84,44.36c1.19,-0.02 2.78,0.45 3.5,-0.14c2.45,-2.01 4.56,-2.22 6.93,0.01c0.77,0.73 1.84,1.13 2.78,1.69c-2.94,-5.5 -0.71,-9 4.58,-11.85c-6.04,0.82 -9.85,-0.8 -10.79,-7.61c-0.93,6.85 -5,8.39 -10.83,7.8c3.84,2.59 7.83,4.5 3.83,10.1m39.48,-0.56c0.41,0.56 1.11,1.66 1.18,1.62c1.87,-1.04 3.66,-2.2 5.36,-3.27c2.25,1.37 4.25,2.58 6.24,3.8c-3.47,-5.86 -0.09,-8.99 4.58,-11.98c-6.25,1.15 -9.72,-0.97 -11,-7.51c-0.62,7.15 -4.91,8.15 -11.13,7.15c3.16,3.4 8.65,4.38 4.77,10.19m128.83,-3.46c1.66,-2.1 3.31,-4.2 5.16,-6.55c-2.51,0 -4.82,0 -7.27,0c-0.93,-2.43 -1.8,-4.71 -3.18,-8.33c-0.79,7.08 -3.92,10.02 -10.73,8.59c5.77,2.59 7.03,6.45 3.54,12.66c3.57,-2.18 5.53,-3.38 7.43,-4.54c2.14,1.28 4.14,2.48 6.84,4.08c-0.66,-2.32 -1.07,-3.73 -1.79,-5.91m-56.85,94.31c0.13,-0.88 0.68,-1.98 0.34,-2.6c-1.94,-3.48 -0.42,-5.5 2.61,-7.09c0.66,-0.34 1.22,-0.9 1.82,-1.36c-6.03,0.84 -9.13,-2.14 -10.73,-8.01c-0.57,6.94 -4.63,8.06 -10.72,7.58c7.09,2.35 6.72,6.7 3.24,12.72c3.59,-2.25 5.66,-3.55 7.84,-4.92c1.72,1.14 3.37,2.22 5.6,3.68m15.59,-90.76c1.15,0.65 2.3,1.3 3.45,1.95c-3.59,-5.81 -0.36,-8.82 5.27,-11.75c-3.84,-0.21 -6.24,-0.34 -8.64,-0.47c-0.92,-2.34 -1.79,-4.53 -2.8,-7.1c-1.31,2.68 -1.86,5.59 -3.6,6.83c-1.63,1.16 -4.51,0.56 -6.85,0.73c5.53,2.61 6.14,6.6 3.97,10.66c2.97,-0.45 5.77,-0.88 9.2,-0.85m-35.72,-10.08c-5.38,0.92 -3.87,-4.61 -6.31,-6.77c-1.12,2.25 -1.69,5.12 -3.42,6.34c-1.62,1.15 -4.48,0.55 -6.79,0.72c5.81,2.49 5.78,6.73 3.15,12.45c3.35,-2.05 5.31,-3.25 7.16,-4.39c2.23,1.34 4.22,2.56 6.22,3.77c-4.15,-6.02 0.21,-8.84 5.55,-12.12c-2.78,0 -3.77,0 -5.56,0m75.76,58.74c-1.3,-2.22 -2.61,-4.45 -4.73,-8.04c0.47,7.8 -3.83,8.92 -9.82,8.62c6.23,2.43 6.26,6.59 3.38,12.28c3.45,-2.05 5.54,-3.28 7.49,-4.44c2.19,1.39 4.1,2.6 6.69,4.25c-0.82,-2.95 -1.43,-5.13 -2.08,-7.49c1.88,-1.45 3.75,-2.91 6.61,-5.13c-3.12,0 -4.93,0 -7.54,-0.05m-173.82,35.16c1.76,-1.39 3.52,-2.78 5.27,-4.18c-5.96,0.57 -9.28,-1.93 -10.27,-8.17c-1.13,6.07 -4.2,8.8 -10.6,7.7c5.61,2.73 6.83,6.48 3.95,12.02c4.69,-4.54 8.82,-4.38 13.42,-0.58c-0.64,-1.99 -1.28,-3.98 -1.77,-6.79m150.93,-55.13c1.77,1.03 3.53,2.07 5.3,3.1c-2.65,-5.67 0.35,-8.74 5.01,-11.62c-6.39,1.35 -9.82,-1.11 -10.97,-7.55c-0.84,6.73 -4.72,8.53 -11.84,7.07c3.5,2.66 5.42,4.12 7.2,5.47c-0.79,2.54 -1.43,4.62 -2.36,7.63c2.97,-1.85 4.93,-3.07 7.66,-4.1m1.77,59.83c1.21,0.76 2.42,1.53 5.22,3.3c-3.65,-6.29 -2.35,-10.05 3.4,-12.89c-6.97,2.12 -9.44,-1.8 -11.21,-7.26c-0.54,6.82 -4.8,7.95 -10.52,7.74c6.47,2.45 6.47,6.55 3.89,10.98c3.12,-0.83 5.88,-1.57 9.22,-1.87m-117.17,-16c-0.22,-0.12 -0.43,-0.28 -0.67,-0.33c-0.09,-0.02 -0.32,0.17 -0.35,0.3c-1.12,5.12 -4.08,7.74 -10.47,6.86c6.76,2.26 6.25,6.63 3.77,12.19c3.23,-1.99 5.19,-3.19 7.15,-4.4c2.12,1.3 4.14,2.54 6.9,4.25c-0.9,-3.02 -1.55,-5.17 -2.22,-7.44c1.94,-1.52 3.8,-2.97 6.51,-5.08c-3.52,0 -5.82,0 -8.23,0c-0.79,-2.03 -1.49,-3.87 -2.39,-6.35m39.18,1.14c-1.91,-2.49 -2.08,-0.14 -2.25,0.95c-0.62,3.81 -2.99,4.72 -6.41,4.29c-0.81,-0.1 -1.67,0.19 -3.84,0.46c5.51,2.65 8.55,5.33 4.55,10.84c4.8,-2.36 9.33,-3.86 13.9,0.95c-3.9,-5.85 -1.36,-9.1 4.44,-11.84c-4.7,-0.77 -9.6,0.95 -10.39,-5.65m-55.95,-18.34c1.61,-2.09 3.21,-4.19 5.31,-6.91c-6.06,1.78 -9.21,-0.63 -10.57,-7.06c-0.24,7.31 -4.88,7.94 -10.22,8.03c4.87,2.64 7.11,5.62 3.44,11c4.97,-2.9 9.4,-4.23 13.78,0.23c-0.5,-1.52 -1,-3.05 -1.74,-5.29m110.24,2.84c2.82,0.63 5.65,1.26 8.48,1.9c-0.56,-1.91 -1.19,-4.09 -1.85,-6.34c1.96,-1.42 3.77,-2.73 5.57,-4.05c-5.89,0.27 -9.37,-1.9 -10.16,-8.37c-1.07,6.08 -4.4,8.73 -10.75,8c5.79,2.51 6.51,6.3 3.25,12.11c2.59,-1.49 3.72,-2.13 5.46,-3.25m-70.25,-0.03c-0.39,-1.42 -0.78,-2.83 -1.22,-4.41c1.92,-1.38 3.74,-2.7 5.56,-4.01c-5.83,0.54 -9.29,-1.66 -10.36,-8.16c-1.08,6.24 -4.35,8.54 -10.72,7.56c5.31,2.65 7.51,5.81 3.73,11.29c4.99,-3.06 9.4,-4.12 13.71,0.22c-0.15,-0.6 -0.3,-1.19 -0.7,-2.49m27.17,-0.62c-0.33,0.7 -0.65,1.4 -1.54,3.29c5.18,-2.86 9.78,-4.91 14.11,-0.26c-0.64,-2.3 -1.28,-4.6 -1.88,-6.75c2.06,-1.61 3.79,-2.97 5.53,-4.33c-5.94,0.74 -9.11,-1.8 -10.46,-7.94c-0.86,6.44 -4.33,8.43 -10.11,7.07c1.34,3.49 7.06,3.56 4.35,8.92z" fill="#3E3D6F" id="svg_33" opacity="1"/>
  <path d="m63.42,112.86c-0.45,0.69 -1.59,1.58 -1.7,1.46c-3.25,-3.28 -6.29,-2.79 -9.4,0.19c-0.14,0.13 -1.12,-0.62 -1.68,-1.24c3.75,-5.47 -1.18,-6.96 -5.4,-10.46c6.79,1.22 10.97,-0.13 11.23,-7.9c1.87,3.71 2.43,6.51 4.12,7.69c1.59,1.1 4.36,0.49 7.23,0.67c-2.29,3.07 -8.24,4.11 -4.4,9.59z" fill="#D8D8DB" id="svg_34" opacity="1"/>
  <path d="m102.49,112.84c0.15,0.88 0.07,1.49 -0.01,2.11c-4.26,-3.94 -8.71,-2.15 -13.15,-0.42c-0.01,-0.15 -0.05,-0.31 -0.01,-0.46c0.04,-0.15 0.15,-0.29 0.3,-0.76c3.9,-5.49 -1.14,-6.98 -5.2,-10.6c6.99,1.63 10.62,-0.53 11.25,-8.09c1.11,2.55 1.42,3.27 1.96,4.2c0.45,6.61 5.85,3.19 9.11,4.67c-2.11,2.89 -8.11,3.86 -4.25,9.35z" fill="#D5D5D8" id="svg_35" opacity="1"/>
  <path d="m24.6,161.78c1.53,0.04 2.66,0.16 4.81,0.38c-3.93,2.72 -8.5,4.68 -5.41,10.38c-0.81,0.23 -1.85,0.35 -2.34,-0.12c-2.54,-2.39 -4.84,-2.2 -7.36,0.06c-0.59,0.53 -1.81,0.37 -3.66,0.69c4.43,-5.54 1.52,-8.24 -3.45,-10.68c5.43,-0.12 10.24,-0.45 9.96,-7.56c3.4,2.05 1.68,8.12 7.45,6.85z" fill="#D8D8DB" id="svg_36" opacity="1"/>
  <path d="m465.57,347.53c-0.57,1.76 -1.36,3.62 -2.67,4.99c-4.84,5.04 -9.9,9.86 -14.74,14.9c-1.31,1.37 -2.1,3.23 -3.61,5.31c-19.5,0.55 -38.53,0.66 -58.02,0.67c-12.51,-0.19 -24.56,-0.28 -36.43,-0.67c5.27,-3.69 10.51,-6.88 15.41,-10.53c6.32,-4.7 12.36,-9.77 18.85,-14.77c0.76,-0.19 1.21,-0.28 2.09,-0.25c3.13,0.06 5.83,0.01 8.53,-0.05c20.89,0.05 41.79,0.11 62.68,0.17c2.48,0 4.97,0.06 7.91,0.23z" fill="#841927" id="svg_37" opacity="1"/>
  <path d="m395.03,346.78c-2.75,0.41 -5.45,0.46 -8.42,0.11c1.08,-1.62 2.49,-2.77 3.75,-4.05c6.9,-7 13.77,-14.03 20.83,-21.22c0.66,-0.25 1.15,-0.32 1.63,-0.4c0.87,0.13 1.73,0.26 2.9,0.52c-0.78,2.07 -1.55,4.31 -3.01,5.91c-5.76,6.37 -11.74,12.54 -17.68,19.13z" fill="#BCA5A7" id="svg_38" opacity="1"/>
  <path d="m24.97,270.63c2.16,-0.52 4.32,-0.63 6.48,-0.63c65.9,-0.02 131.81,-0.03 198.65,-0.06c71.39,-0.01 141.85,0 212.32,0.01c2.16,0 4.32,0.12 6.48,0.18c-5.22,8.33 -10.44,16.66 -15.79,25.28c-0.28,0.36 -0.44,0.43 -1.29,0.5c-135.25,-0.01 -269.8,-0.02 -404.35,-0.02c-0.83,0 -1.66,0.1 -2.49,0.16c0,0 0.14,-0.15 0.13,-0.25c-0.05,-8.3 -0.09,-16.51 -0.14,-25.17z" fill="#F2F2F2" id="svg_39" opacity="1"/>
  <path d="m24.99,296.52c0.82,-0.53 1.65,-0.63 2.48,-0.63c134.55,0 269.1,0.01 404.12,0.12c-5.82,8.26 -12.11,16.42 -18.59,24.9c-0.66,0.39 -1.15,0.46 -2.28,0.66c-127.67,0.12 -254.69,0.11 -381.72,0.12c-1.32,0 -2.65,0.15 -3.97,0.23c0,0 0.2,-0.06 0.13,-0.33c-0.06,-0.27 -0.19,-0.58 -0.19,-0.58c0.01,-8.01 0.01,-16.02 0.02,-24.49z" fill="#B22334" id="svg_40" opacity="1"/>
  <path d="m449.17,270.04c-2.43,0.03 -4.59,-0.09 -6.75,-0.09c-70.47,-0.01 -140.93,-0.02 -211.85,-0.09c-0.41,-8.35 -0.37,-16.63 0.19,-25.38c75.12,-0.45 149.73,-0.44 224.34,-0.42c2,0 3.99,0.13 5.98,0.2c-3.22,7.22 -6.45,14.44 -9.68,21.67c-0.46,1.04 -0.92,2.08 -1.4,3.48c-0.21,0.41 -0.38,0.47 -0.83,0.63z" fill="#B22436" id="svg_41" opacity="1"/>
  <path d="m24.63,220.49c1.51,0.05 2.62,0.21 5.24,0.6c-5.99,2.68 -8.57,5.97 -4.96,11.53c-0.08,0.35 -0.29,0.4 -0.41,0.32c-4.22,-3.05 -8.44,-5.69 -13.31,0.65c2.89,-5.92 2.04,-9.89 -4.39,-12.05c8.51,-1.88 8.51,-1.88 10.92,-7.32c2.85,1.47 1.24,7.6 6.91,6.27z" fill="#D2D2D5" id="svg_42" opacity="1"/>
  <path d="m386.99,373.49c19.03,-0.1 38.06,-0.21 57.55,-0.4c13.54,0.05 26.61,0.19 40.1,0.42c-0.61,1.72 -1.38,3.59 -2.68,4.95c-4.81,5.02 -9.85,9.81 -14.66,14.83c-1.33,1.39 -2.14,3.27 -3.25,5.26c-13.08,0.42 -26.1,0.49 -39.58,0.64c-19.49,0 -38.52,-0.08 -58,-0.58c0.49,-1.94 1.21,-3.66 2.41,-4.92c4.97,-5.15 10.16,-10.1 15.11,-15.28c1.3,-1.36 2.02,-3.26 3,-4.92z" fill="#B1B1B1" id="svg_43" opacity="1"/>
  <path d="m461.31,244.17c-2.22,0.02 -4.21,-0.11 -6.21,-0.11c-74.61,-0.02 -149.22,-0.03 -224.27,-0.04c-0.46,-8.32 -0.5,-16.64 -0.03,-25.41c72.56,-0.46 144.63,-0.48 216.7,-0.48c7.82,0 15.64,0.09 23.46,0.13c-2.94,8.31 -5.88,16.62 -8.9,25.28c-0.08,0.35 -0.53,0.54 -0.75,0.63z" fill="#F2F2F2" id="svg_44" opacity="1"/>
  <path d="m471.22,218.16c-8.08,0.06 -15.9,-0.03 -23.72,-0.03c-72.07,0 -144.14,0.02 -216.64,0.03c-0.5,-8.37 -0.56,-16.74 -0.11,-25.56c82.24,-0.43 163.98,-0.41 245.72,-0.41c0.83,0 1.66,-0.13 2.48,-0.2c0,0 -0.05,0.31 -0.02,0.47c-2.28,8.32 -4.58,16.49 -6.9,25.05c-0.19,0.43 -0.37,0.48 -0.81,0.65z" fill="#B22536" id="svg_45" opacity="1"/>
  <path d="m479.02,191.6c-0.89,0.46 -1.72,0.59 -2.55,0.59c-81.74,0 -163.48,-0.02 -245.65,-0.04c-0.47,-8.26 -0.5,-16.5 -0.02,-25.18c82.53,-0.45 164.56,-0.47 246.59,-0.5c2.15,0 4.31,-0.16 6.46,-0.25c0,0 -0.11,0.22 -0.07,0.34c-1.55,8.29 -3.12,16.47 -4.76,25.04z" fill="#F2F2F2" id="svg_46" opacity="1"/>
  <path d="m483.91,165.8c-2.21,0.51 -4.37,0.67 -6.52,0.67c-82.03,0.03 -164.06,0.05 -246.52,0.07c-0.49,-8.28 -0.55,-16.58 -0.1,-25.35c84.76,-0.47 169.01,-0.45 253.25,-0.45c0.99,0 1.99,-0.12 2.98,-0.19c0,0 -0.07,0.29 -0.03,0.43c-0.97,8.22 -1.99,16.31 -3.06,24.82z" fill="#B22234" id="svg_47" opacity="1"/>
  <path d="m487.04,140.16c-1.03,0.46 -2.03,0.58 -3.02,0.58c-84.24,0 -168.49,-0.02 -253.16,-0.03c-0.5,-8.27 -0.56,-16.53 -0.58,-25.27c35.01,-0.51 69.98,-0.56 104.95,-0.58c47.62,-0.02 95.24,-0.02 143.33,-0.12c1.19,0.02 1.92,0.13 3.01,0.31c8.89,6.87 6.87,15.86 5.47,25.11z" fill="#F2F2F2" id="svg_48" opacity="1"/>
  <path d="m295.92,398.84c-1.05,0.09 -2.1,0.18 -4,0.27c-85.71,-0.01 -170.56,-0.02 -255.42,-0.02c-0.83,0 -1.65,0.11 -2.48,0.17c-0.45,-0.09 -0.89,-0.17 -1.66,-0.33c-7.87,-6.78 -7.84,-15.61 -7.25,-25.03c0.02,-0.43 0.04,-0.65 0.44,-0.66c78.24,0 156.07,0.01 233.9,0.03c28.83,0.01 57.66,0.05 86.41,0.4c-4.67,3.14 -9.04,6.4 -13.87,8.71c-11.91,5.72 -24.03,11 -36.07,16.46z" fill="#F2F2F2" id="svg_49" opacity="1"/>
  <path d="m345.94,373.35c-28.83,-0.03 -57.66,-0.07 -86.49,-0.08c-77.83,-0.02 -155.66,-0.03 -233.95,-0.12c-0.46,-8.25 -0.47,-16.42 -0.46,-25c0.02,-0.42 0.01,-0.77 0.45,-0.84c2.77,-0.04 5.1,0 7.43,0c114.88,0 229.75,0 344.63,0.01c2.16,0 4.32,0.13 6.48,0.2c-6.16,4.91 -12.2,9.98 -18.52,14.68c-4.9,3.65 -10.14,6.84 -15.8,10.6c-1.64,0.43 -2.7,0.49 -3.77,0.55z" fill="#B32638" id="svg_50" opacity="1"/>
  <path d="m24.77,321.13c0.2,-0.12 0.33,0.19 0.37,0.36c-0.15,0.25 -0.35,0.33 -0.86,0.44c-0.18,-0.27 0.03,-0.5 0.49,-0.8z" fill="#BCA5A7" id="svg_51" opacity="1"/>
  <path d="m384.36,347.43c-2.49,0.02 -4.65,-0.11 -6.81,-0.11c-114.88,-0.01 -229.75,-0.01 -344.63,-0.01c-2.33,0 -4.66,-0.04 -7.45,-0.17c-0.45,-8.17 -0.45,-16.22 -0.45,-24.75c1.33,-0.55 2.66,-0.7 3.98,-0.7c127.03,-0.01 254.05,0 381.54,0.05c-6.41,7.07 -13.28,14.1 -20.18,21.1c-1.26,1.28 -2.67,2.43 -4.18,3.93c-0.61,0.38 -1.06,0.47 -1.82,0.66z" fill="#F2F2F2" id="svg_52" opacity="1"/>
  <path d="m219.71,112.76c-0.26,0.83 -1.11,2 -1.24,1.93c-1.68,-0.98 -3.26,-2.13 -5.01,-3.33c-1.98,1.3 -3.88,2.55 -5.78,3.79c-0.29,-0.53 -0.59,-1.07 -0.88,-1.88c3.81,-5.4 -0.77,-7.08 -4.26,-9.87c5.93,0.74 9.91,-0.94 10.79,-7.64c1.18,6.37 4.47,8.93 10.58,7.98c-1.9,1.48 -3.79,2.95 -5.85,4.56c0.48,1.45 0.93,2.84 1.65,4.46z" fill="#CECED1" id="svg_53" opacity="1"/>
  <path d="m141.56,112.82c0.63,2.99 -0.8,2.66 -2.06,1.37c-3.07,-3.14 -5.82,-2.64 -8.76,0.14c-0.42,0.4 -2.73,2.99 -1.99,-1.06c3.79,-5.43 -1.03,-6.99 -5.49,-10.56c7.17,1.55 10.9,-0.49 11.98,-6.99c0.99,6.51 4.5,8.55 11.02,6.94c-2.56,3.71 -8.7,4.69 -4.7,10.16z" fill="#D2D2D5" id="svg_54" opacity="1"/>
  <path d="m180.66,112.79c0.56,2.78 -0.68,2.81 -2.06,1.4c-3.04,-3.12 -5.77,-2.7 -8.7,0.1c-0.46,0.44 -2.68,2.96 -2.08,-1.03c3.88,-5.46 -0.98,-6.99 -5.54,-10.5c7.13,1.4 11.08,-0.35 11.98,-7.02c1.16,6.21 4.34,8.73 10.4,8.04c-1.85,1.47 -3.69,2.94 -5.69,4.52c0.5,1.48 0.97,2.87 1.69,4.49z" fill="#D2D2D5" id="svg_55" opacity="1"/>
  <path d="m34.31,399.5c0.54,-0.3 1.36,-0.41 2.19,-0.41c84.86,0 169.71,0.01 255.03,0.11c-2.06,0.66 -4.59,1.73 -7.12,1.74c-33.82,0.11 -67.64,0.08 -101.93,0.1c-47.02,-0.01 -93.59,0 -140.15,-0.08c-2.58,-0.01 -5.15,-0.8 -8.02,-1.46z" fill="#9E2433" id="svg_56" opacity="1"/>
  <path d="m345.86,373.67c1.15,-0.38 2.21,-0.44 3.67,-0.58c12.44,0.03 24.49,0.12 37,0.31c-0.52,1.75 -1.24,3.65 -2.54,5.01c-4.95,5.18 -10.14,10.13 -15.11,15.28c-1.2,1.26 -1.92,2.98 -2.87,4.84c-18.71,0.44 -37.39,0.52 -56.54,0.67c-4.52,0 -8.58,-0.08 -13.09,-0.26c11.58,-5.56 23.7,-10.84 35.61,-16.56c4.83,-2.31 9.2,-5.57 13.87,-8.71z" fill="#BDB4B5" id="svg_57" opacity="1"/>
  <path d="m107.03,134.23c-0.16,-0.45 -0.14,-0.75 -0.1,-0.76c4.67,-0.39 10.09,0.36 10.04,-8.07c0.92,7.47 5.13,8.53 10.54,8.51c-1.77,1.38 -3.54,2.76 -5.58,4.35c0.63,2.26 1.27,4.59 2.34,8.42c-4.84,-5.32 -9.12,-5.63 -13.88,-1.1c2.45,-5.21 2.14,-8.99 -3.36,-11.35z" fill="#E6E6E9" id="svg_58" opacity="1"/>
  <path d="m154.27,129.62c0.5,-1.25 0.87,-2.14 1.89,-4.6c0.93,6.98 4.21,9.52 10.51,8.17c-3.68,3.14 -8.15,5.71 -4.13,12.03c-5.12,-4.74 -9.15,-3.16 -13.44,0.59c2.15,-5.26 3.03,-9.92 -4.46,-11.62c3.69,-2.36 8.53,1.29 9.63,-4.57z" fill="#E6E6E9" id="svg_59" opacity="1"/>
  <path d="m37.45,127.75c0.65,-0.44 1.13,-0.55 1.61,-0.65c0.68,5.96 4.63,6.84 10.03,6.68c-1.89,1.42 -3.77,2.85 -5.91,4.47c0.58,2.06 1.18,4.23 2.05,7.31c-2.69,-1.56 -4.7,-2.74 -6.8,-3.95c-2,1.19 -3.98,2.35 -7.66,4.54c3.92,-6.34 2.54,-10.03 -4.36,-12.36c5.18,-1.18 10.71,0.79 11.04,-6.04z" fill="#E7E7EA" id="svg_60" opacity="1"/>
  <path d="m72.06,145.05c-0.04,-0.16 -0.17,-0.36 -0.11,-0.48c2.05,-4.8 1.37,-8.58 -4,-11.23c2.33,-0.14 5.19,0.49 6.84,-0.65c1.75,-1.21 2.34,-4.09 3.97,-7.28c0.62,6.9 4.17,9.1 10.12,8.38c-1.9,1.48 -3.8,2.96 -5.83,4.54c0.64,2.21 1.27,4.36 1.9,6.51c-4.32,-3.22 -8.31,-3.63 -12.59,0.18c-0.35,-0.02 -0.3,0.03 -0.3,0.03z" fill="#E6E6E9" id="svg_61" opacity="1"/>
  <path d="m200.02,144.97c-4.24,-2.75 -8.46,-4.34 -12.99,0.12c0.61,-2.16 1.22,-4.31 1.92,-6.77c-1.85,-1.43 -3.78,-2.92 -6.43,-4.96c3.25,-0.19 5.74,-0.33 8.3,-0.47c0.9,-2.25 1.74,-4.38 3.19,-8c0.88,7.09 4.19,9.76 10.78,8.5c-5.14,2.68 -7.23,5.96 -4.68,11.28c-0.13,0.35 -0.09,0.3 -0.09,0.3z" fill="#E6E6E9" id="svg_62" opacity="1"/>
  <path d="m50.35,172.16c3.77,-5.31 -0.22,-7.22 -4.06,-9.81c5.83,0.59 9.9,-0.95 10.83,-7.8c0.94,6.81 4.75,8.43 10.79,7.61c-5.29,2.85 -7.52,6.35 -4.58,11.85c-0.94,-0.56 -2.01,-0.96 -2.78,-1.69c-2.37,-2.23 -4.48,-2.02 -6.93,-0.01c-0.72,0.59 -2.31,0.12 -3.27,-0.15z" fill="#E9E9EB" id="svg_63" opacity="1"/>
  <path d="m32.22,204.17c-0.1,-0.3 -0.39,-0.7 -0.29,-0.91c2.3,-4.84 1.7,-8.61 -4.69,-10.83c6.47,0.79 10.24,-1.19 10.72,-8.92c1.58,3.84 2.48,6.04 3.47,8.47c2.48,0 4.93,0 7.38,0c-4.39,3.01 -7.47,6.21 -3.55,12.4c-4.58,-4.1 -8.55,-4.47 -12.75,-0.34c-0.33,0.1 -0.29,0.13 -0.29,0.13z" fill="#E9E9EB" id="svg_64" opacity="1"/>
  <path d="m89.8,171.56c3.68,-5.48 -1.81,-6.46 -4.97,-9.86c6.22,1 10.51,0 11.13,-7.15c1.28,6.54 4.75,8.66 11,7.51c-4.67,2.99 -8.05,6.12 -4.58,11.98c-1.99,-1.22 -3.99,-2.43 -6.24,-3.8c-1.7,1.07 -3.49,2.23 -5.36,3.27c-0.07,0.04 -0.77,-1.06 -0.98,-1.95z" fill="#E9E9EC" id="svg_65" opacity="1"/>
  <path d="m218.59,168.82c0.56,1.79 0.97,3.2 1.63,5.52c-2.7,-1.6 -4.7,-2.8 -6.84,-4.08c-1.9,1.16 -3.86,2.36 -7.43,4.54c3.49,-6.21 2.23,-10.07 -3.54,-12.66c6.81,1.43 9.94,-1.51 10.73,-8.59c1.38,3.62 2.25,5.9 3.18,8.33c2.45,0 4.76,0 7.27,0c-1.85,2.35 -3.5,4.45 -5,6.94z" fill="#EAEAEC" id="svg_66" opacity="1"/>
  <path d="m161.29,262.55c-1.94,-1.27 -3.59,-2.35 -5.31,-3.49c-2.18,1.37 -4.25,2.67 -7.84,4.92c3.48,-6.02 3.85,-10.37 -3.24,-12.72c6.09,0.48 10.15,-0.64 10.72,-7.58c1.6,5.87 4.7,8.85 10.73,8.01c-0.6,0.46 -1.16,1.02 -1.82,1.36c-3.03,1.59 -4.55,3.61 -2.61,7.09c0.34,0.62 -0.21,1.72 -0.63,2.41z" fill="#E9E9EC" id="svg_67" opacity="1"/>
  <path d="m72.3,204.37c-0.16,-0.29 -0.51,-0.68 -0.43,-0.85c2.4,-4.99 1.02,-8.65 -4.4,-11.22c5.52,0.1 10.61,0.31 9.75,-8.15c0.47,0.37 0.94,0.73 1.41,1.1c0.42,1.03 0.86,2.06 1.26,3.1c0.42,1.08 0.8,2.17 1.29,3.5c2.46,0 4.91,0 8.79,0c-2.96,2.24 -4.91,3.71 -6.94,5.25c0.67,2.29 1.3,4.43 1.94,6.58c-4.32,-3.1 -8.26,-4.05 -12.42,0.43c-0.28,0.21 -0.25,0.26 -0.25,0.26z" fill="#E9E9EC" id="svg_68" opacity="1"/>
  <path d="m176.85,171.75c-3.11,0.2 -5.91,0.63 -8.88,1.08c2.17,-4.06 1.56,-8.05 -3.97,-10.66c2.34,-0.17 5.22,0.43 6.85,-0.73c1.74,-1.24 2.29,-4.15 3.6,-6.83c1.01,2.57 1.88,4.76 2.8,7.1c2.4,0.13 4.8,0.26 8.64,0.47c-5.63,2.93 -8.86,5.94 -5.27,11.75c-1.15,-0.65 -2.3,-1.3 -3.77,-2.18z" fill="#EAEAEC" id="svg_69" opacity="1"/>
  <path d="m141.85,161.9c1.39,0 2.38,0 5.16,0c-5.34,3.28 -9.7,6.1 -5.55,12.12c-2,-1.21 -3.99,-2.43 -6.22,-3.77c-1.85,1.14 -3.81,2.34 -7.16,4.39c2.63,-5.72 2.66,-9.96 -3.15,-12.45c2.31,-0.17 5.17,0.43 6.79,-0.72c1.73,-1.22 2.3,-4.09 3.42,-6.34c2.44,2.16 0.93,7.69 6.71,6.77z" fill="#E7E7EA" id="svg_70" opacity="1"/>
  <path d="m217.62,220.67c2.2,0.02 4.01,0.02 7.13,0.02c-2.86,2.22 -4.73,3.68 -6.61,5.13c0.65,2.36 1.26,4.54 2.08,7.49c-2.59,-1.65 -4.5,-2.86 -6.69,-4.25c-1.95,1.16 -4.04,2.39 -7.49,4.44c2.88,-5.69 2.85,-9.85 -3.38,-12.28c5.99,0.3 10.29,-0.82 9.82,-8.62c2.12,3.59 3.43,5.82 5.14,8.07z" fill="#E7E7EA" id="svg_71" opacity="1"/>
  <path d="m43.32,256.21c0.56,2.4 1.2,4.39 1.84,6.38c-4.6,-3.8 -8.73,-3.96 -13.42,0.58c2.88,-5.54 1.66,-9.29 -3.95,-12.02c6.4,1.1 9.47,-1.63 10.6,-7.7c0.99,6.24 4.31,8.74 10.27,8.17c-1.75,1.4 -3.51,2.79 -5.34,4.59z" fill="#EAEAEC" id="svg_72" opacity="1"/>
  <path d="m193.93,200.57c-2.34,1.13 -4.3,2.35 -7.27,4.2c0.93,-3.01 1.57,-5.09 2.36,-7.63c-1.78,-1.35 -3.7,-2.81 -7.2,-5.47c7.12,1.46 11,-0.34 11.84,-7.07c1.15,6.44 4.58,8.9 10.97,7.55c-4.66,2.88 -7.66,5.95 -5.01,11.62c-1.77,-1.03 -3.53,-2.07 -5.69,-3.2z" fill="#EAEAEC" id="svg_73" opacity="1"/>
  <path d="m195.8,260.29c-3.05,0.51 -5.81,1.25 -8.93,2.08c2.58,-4.43 2.58,-8.53 -3.89,-10.98c5.72,0.21 9.98,-0.92 10.52,-7.74c1.77,5.46 4.24,9.38 11.21,7.26c-5.75,2.84 -7.05,6.6 -3.4,12.89c-2.8,-1.77 -4.01,-2.54 -5.51,-3.51z" fill="#E9E9EC" id="svg_74" opacity="1"/>
  <path d="m111.19,204.48c-0.18,-0.42 -0.64,-0.99 -0.51,-1.25c2.53,-4.94 0.94,-8.36 -4.43,-10.89c5.75,0.52 10.07,-0.41 11.1,-6.96c0.91,2.11 1.82,4.23 2.77,6.44c2.46,0.11 4.86,0.22 8.35,0.38c-4.3,2.87 -8.54,4.99 -5.18,11.12c-4.52,-3.09 -8.29,-3.24 -11.84,0.84c-0.27,0.26 -0.26,0.32 -0.26,0.32z" fill="#E9E9EC" id="svg_75" opacity="1"/>
  <path d="m161.73,204.56c-3.39,-5.32 -7.88,-3.38 -12.66,-1.34c4.3,-5.82 0.26,-8.07 -3.9,-10.84c5.34,0.15 10.14,-0.17 10.4,-7.62c1.65,5.98 4.74,9.02 11.45,7.37c-6.17,2.62 -6.6,6.8 -5,12.07c-0.28,0.33 -0.29,0.36 -0.29,0.36z" fill="#E9E9EC" id="svg_76" opacity="1"/>
  <path d="m79.01,244.82c0.81,2.16 1.51,4 2.3,6.03c2.41,0 4.71,0 8.23,0c-2.71,2.11 -4.57,3.56 -6.51,5.08c0.67,2.27 1.32,4.42 2.22,7.44c-2.76,-1.71 -4.78,-2.95 -6.9,-4.25c-1.96,1.21 -3.92,2.41 -7.15,4.4c2.48,-5.56 2.99,-9.93 -3.77,-12.19c6.39,0.88 9.35,-1.74 10.47,-6.86c0.03,-0.13 0.26,-0.32 0.35,-0.3c0.24,0.05 0.45,0.21 0.76,0.65z" fill="#EAEAEC" id="svg_77" opacity="1"/>
  <path d="m118.22,246c0.67,6.24 5.57,4.52 10.27,5.29c-5.8,2.74 -8.34,5.99 -4.44,11.84c-4.57,-4.81 -9.1,-3.31 -13.9,-0.95c4,-5.51 0.96,-8.19 -4.55,-10.84c2.17,-0.27 3.03,-0.56 3.84,-0.46c3.42,0.43 5.79,-0.48 6.41,-4.29c0.17,-1.09 0.34,-3.44 2.37,-0.59z" fill="#E9E9EB" id="svg_78" opacity="1"/>
  <path d="m62.27,227.65c0.62,1.89 1.12,3.42 1.62,4.94c-4.38,-4.46 -8.81,-3.13 -13.78,-0.23c3.67,-5.38 1.43,-8.36 -3.44,-11c5.34,-0.09 9.98,-0.72 10.22,-8.03c1.36,6.43 4.51,8.84 10.57,7.06c-2.1,2.72 -3.7,4.82 -5.19,7.26z" fill="#EAEAEC" id="svg_79" opacity="1"/>
  <path d="m172.08,230.37c-1.43,0.89 -2.56,1.53 -5.15,3.02c3.26,-5.81 2.54,-9.6 -3.25,-12.11c6.35,0.73 9.68,-1.92 10.75,-8c0.79,6.47 4.27,8.64 10.16,8.37c-1.8,1.32 -3.61,2.63 -5.57,4.05c0.66,2.25 1.29,4.43 1.85,6.34c-2.83,-0.64 -5.66,-1.27 -8.79,-1.67z" fill="#E9E9EC" id="svg_80" opacity="1"/>
  <path d="m102.26,230.46c0.28,0.95 0.43,1.54 0.58,2.14c-4.31,-4.34 -8.72,-3.28 -13.71,-0.22c3.78,-5.48 1.58,-8.64 -3.73,-11.29c6.37,0.98 9.64,-1.32 10.72,-7.56c1.07,6.5 4.53,8.7 10.36,8.16c-1.82,1.31 -3.64,2.63 -5.56,4.01c0.44,1.58 0.83,2.99 1.34,4.76z" fill="#EAEAEC" id="svg_81" opacity="1"/>
  <path d="m129.48,229.15c2.54,-5.02 -3.18,-5.09 -4.52,-8.58c5.78,1.36 9.25,-0.63 10.11,-7.07c1.35,6.14 4.52,8.68 10.46,7.94c-1.74,1.36 -3.47,2.72 -5.53,4.33c0.6,2.15 1.24,4.45 1.88,6.75c-4.33,-4.65 -8.93,-2.6 -14.11,0.26c0.89,-1.89 1.21,-2.59 1.71,-3.63z" fill="#EAEAEC" id="svg_82" opacity="1"/>
  <path d="m71.99,144.98c-0.1,-0.01 -0.19,0.01 -0.1,0.05c0.17,0.02 0.12,-0.03 0.1,-0.05z" fill="#E6E6E9" id="svg_83" opacity="1"/>
  <path d="m199.96,145.05c0.19,0.06 0.4,0.08 0.61,0.11c-0.15,0.06 -0.3,0.12 -0.5,-0.01c-0.05,-0.18 -0.09,-0.13 -0.11,-0.1z" fill="#E6E6E9" id="svg_84" opacity="1"/>
  <path d="m32.16,204.13c-0.02,-0.02 -0.08,0 -0.01,0.02c0.07,0.02 0.03,-0.01 0.01,-0.02z" fill="#E9E9EB" id="svg_85" opacity="1"/>
  <path d="m72.25,204.3c-0.18,-0.07 -0.34,-0.12 -0.49,-0.18c0.1,0.01 0.2,0.01 0.42,0.13c0.12,0.12 0.09,0.07 0.07,0.05z" fill="#E9E9EC" id="svg_86" opacity="1"/>
  <path d="m111.18,204.4c-0.27,-0.11 -0.53,-0.2 -0.79,-0.28c0.23,-0.06 0.46,-0.11 0.75,0.1c0.05,0.26 0.04,0.2 0.04,0.18z" fill="#E9E9EC" id="svg_87" opacity="1"/>
  <path d="m161.73,204.56c0.15,-0.22 0.31,-0.47 0.47,-0.72c-0.03,0.15 -0.05,0.31 -0.28,0.59c-0.19,0.13 -0.18,0.1 -0.19,0.13z" fill="#E9E9EC" id="svg_88" opacity="1"/>
 </g>
</svg>